PathFileType	4	(X/Y/Z)	 s04c0403.trc
DataRate	CameraRate	NumFrames	NumMarkers	Units	OrigDataRate	OrigDataStartFrame	OrigNumFrames
200	200	4	50	mm	200	751	2000
Frame#	Time	racr			lacr			c7			jug			rlel			rdr			llel			ldr			s2			lic			ric			lasi			rasi			rpsi			lpsi			rgt			lgt			rth1			rth2			rth3			rth4			rlfc			rmfc			rsh1			rsh2			rsh3			rsh4			rlmal			rmmal			rcal			rtoe			rmt5			lth1			lth2			lth4			lth3			llfc			lmfc			lsh1			lsh2			lsh3			lsh4			llmal			lmmal			lcal			ltoe			lmt5			SBIKE			LBIKE			RBIKE			
		X1	Y1	Z1	X2	Y2	Z2	X3	Y3	Z3	X4	Y4	Z4	X5	Y5	Z5	X6	Y6	Z6	X7	Y7	Z7	X8	Y8	Z8	X9	Y9	Z9	X10	Y10	Z10	X11	Y11	Z11	X12	Y12	Z12	X13	Y13	Z13	X14	Y14	Z14	X15	Y15	Z15	X16	Y16	Z16	X17	Y17	Z17	X18	Y18	Z18	X19	Y19	Z19	X20	Y20	Z20	X21	Y21	Z21	X22	Y22	Z22	X23	Y23	Z23	X24	Y24	Z24	X25	Y25	Z25	X26	Y26	Z26	X27	Y27	Z27	X28	Y28	Z28	X29	Y29	Z29	X30	Y30	Z30	X31	Y31	Z31	X32	Y32	Z32	X33	Y33	Z33	X34	Y34	Z34	X35	Y35	Z35	X36	Y36	Z36	X37	Y37	Z37	X38	Y38	Z38	X39	Y39	Z39	X40	Y40	Z40	X41	Y41	Z41	X42	Y42	Z42	X43	Y43	Z43	X44	Y44	Z44	X45	Y45	Z45	X46	Y46	Z46	X47	Y47	Z47	X48	Y48	Z48	X49	Y49	Z49	X50	Y50	Z50	
751	3.7550	780.123015	1382.736441	-106.444660	823.347790	1389.431559	-431.149346	779.949622	1486.039252	-282.554466	770.734329	1331.026698	-281.430305	537.541657	1175.428758	21.158296	695.572769	949.581450	-39.774870	615.987051	1182.314602	-543.646576	695.727011	929.318571	-447.613473	219.319035	1256.951240	-339.366567	388.633079	1249.848075	-475.536484	354.642375	1245.240407	-155.022118	424.034340	1196.813128	-430.647327	394.646566	1187.891010	-198.131392	247.034313	1296.837155	-288.814233	255.168493	1300.647909	-363.541019	289.061686	1187.478453	-151.410951	358.328397	1154.326886	-501.021926	323.748669	1036.497859	-111.440609	358.146993	955.195924	-113.676294	350.475889	870.239151	-116.285950	393.684933	961.586928	-123.340757	372.778325	723.653748	-129.550670	357.528687	696.266156	-240.640399	323.786213	606.416298	-97.992392	320.636523	515.545424	-107.451109	272.587202	444.345687	-112.415677	353.990125	508.441852	-127.430073	238.951506	294.326637	-112.582767	263.604219	296.080198	-194.929974	173.494517	299.864705	-145.383830	427.373880	133.106045	-153.443133	359.462615	143.480517	-94.180759	412.333917	1078.169647	-499.158966	484.685455	1031.734106	-486.094929	507.852755	1055.538376	-472.344683	525.790072	953.246926	-480.028579	595.204851	824.463568	-436.087759	595.833091	801.482029	-319.754277	511.599554	751.630331	-463.664685	444.776515	699.720299	-444.660250	357.691634	679.378331	-452.571476	454.606125	681.556979	-410.804720	223.474346	617.689071	-457.392971	NaN	NaN	NaN	154.716704	675.597168	-428.461924	300.897699	412.240874	-388.309547	241.200150	448.780040	-461.394192	-176.209717	934.231401	-279.083264	-3.098988	85.721664	-484.390376	-14.810385	80.273282	-83.983934	
752	3.7600	779.867970	1383.665671	-108.702023	824.241620	1388.221211	-433.107823	780.232887	1485.986522	-285.154571	770.666250	1330.901638	-283.359724	538.532646	1175.973432	20.262143	695.776261	949.849842	-41.068189	616.073916	1181.721381	-545.183844	695.485795	929.297747	-447.767845	218.845524	1257.865845	-338.590556	386.945309	1251.218459	-475.895894	355.580148	1245.439906	-155.196082	423.481746	1198.256368	-431.154888	395.270817	1188.147465	-198.794578	246.521556	1297.739647	-288.265465	254.409498	1301.675493	-362.732117	289.303290	1187.561120	-151.815329	357.263293	1156.144226	-501.280827	322.927252	1036.576130	-111.495928	356.663179	954.993843	-113.744239	348.309829	870.129438	-116.320946	392.238970	961.089679	-123.477613	369.457369	723.449201	-129.429640	354.292193	695.879366	-240.683174	320.447650	606.285125	-97.701852	317.639531	515.458935	-106.913600	269.767631	444.054962	-111.668306	351.019292	508.398349	-126.757842	236.937418	293.708346	-111.347114	261.229904	295.417954	-193.870394	171.728687	300.656143	-143.967505	422.677885	129.408972	-153.822588	355.188350	140.221885	-94.965827	411.579551	1080.110611	-499.444150	484.230372	1034.017902	-486.379999	507.670516	1057.949319	-472.046713	525.741502	955.702614	-479.959814	596.133706	827.738675	-435.967348	596.847102	804.762106	-319.530281	512.887868	754.719036	-463.509543	446.278886	702.346165	-444.681301	359.435884	681.590365	-452.499314	456.196730	684.193817	-410.857836	225.305917	619.688060	-457.414437	NaN	NaN	NaN	155.494015	676.580106	-428.638457	306.452482	416.080558	-388.280697	246.048249	451.473955	-461.538524	-176.299768	934.178837	-279.141020	-3.112576	85.686079	-484.402163	-14.827906	80.289635	-84.010418	
753	3.7650	779.629791	1384.631550	-110.933123	825.098801	1387.023587	-435.015041	780.641654	1485.977975	-287.801753	770.638386	1330.831937	-285.271480	539.520036	1176.462884	19.288676	696.096334	950.028713	-42.179790	616.303155	1181.185358	-546.771737	695.308367	929.314478	-447.983057	218.384331	1259.129260	-337.846459	385.479678	1252.784952	-476.377514	356.569925	1245.810924	-155.348571	422.321062	1199.916255	-431.830968	395.796735	1188.780428	-199.476985	247.489086	1298.621227	-286.621399	253.898269	1303.111522	-362.169823	289.500008	1187.830710	-152.110976	356.253574	1158.122981	-501.609550	322.120691	1036.861189	-111.571905	355.189306	955.017324	-113.861118	346.092911	870.298823	-116.385342	390.738080	960.976148	-123.573050	366.058416	723.601146	-129.498681	350.915893	695.691037	-240.729881	317.248408	606.442583	-97.394658	314.684616	515.569325	-106.342068	267.093974	443.990647	-110.784597	348.165604	508.509957	-126.269369	235.152959	293.465015	-110.188762	259.216446	294.993710	-192.663287	170.036675	301.530469	-142.711905	417.161318	125.122946	-154.722259	350.797068	137.498595	-94.995764	410.980674	1082.225296	-499.699207	483.819154	1036.400653	-486.606051	507.134757	1060.553373	-472.385600	525.685345	958.410965	-479.903627	596.937647	830.922335	-435.827975	597.732652	808.183072	-319.356712	513.876539	757.839017	-463.514227	447.515885	705.105529	-444.720557	360.793365	683.937741	-452.591856	457.738774	686.978606	-411.269938	227.117260	621.528072	-457.493978	NaN	NaN	NaN	156.228970	677.312820	-428.850572	312.104566	419.933693	-388.094138	251.009834	453.804296	-461.512498	-176.357569	934.162522	-279.230734	-3.129405	85.688378	-484.393965	-14.831292	80.282090	-83.998757	
754	3.7700	779.413458	1385.543401	-113.227248	825.980350	1385.910443	-436.868171	781.226744	1486.117062	-290.606305	770.692816	1330.818288	-287.283897	540.490827	1176.929641	18.187980	696.389831	950.239999	-43.127475	616.485979	1180.617267	-548.355156	695.050306	929.262741	-448.046546	217.941144	1260.580054	-337.160055	383.872319	1254.416657	-476.590629	357.513338	1246.496777	-155.436374	421.109605	1201.790887	-432.239936	396.293761	1189.441298	-199.984419	247.937437	1298.975134	-286.492236	253.568904	1304.484784	-361.827378	289.704283	1188.363827	-152.394641	355.265835	1160.378076	-501.885080	321.267036	1037.315770	-111.681644	353.673160	955.214489	-114.072691	343.916006	870.553795	-116.620122	389.251768	960.939165	-123.833163	362.701321	723.698049	-129.737067	347.263254	695.768885	-240.797301	314.069067	606.805174	-97.139765	311.899446	515.812791	-105.822234	264.612304	444.021038	-109.906287	345.309575	508.893696	-125.724836	233.246665	293.248553	-109.212172	257.441854	294.953993	-191.519313	168.435908	302.682621	-141.816374	412.380345	121.708905	-155.015692	346.226469	135.171738	-94.820364	410.395224	1084.588065	-499.968024	483.412412	1039.043089	-486.720136	506.673458	1063.322962	-472.561174	525.616032	961.197379	-479.826513	597.474745	834.215172	-435.777454	598.346718	811.552116	-319.229308	514.671353	760.989184	-463.487365	448.195571	707.589658	-444.338962	361.960500	686.374818	-452.711369	459.008685	689.422809	-411.966893	228.933159	623.364483	-457.777111	NaN	NaN	NaN	156.804908	677.742120	-429.043568	317.758226	423.712562	-388.046984	255.757951	455.848093	-461.149851	-176.408371	934.182700	-279.276429	-3.130167	85.691181	-484.406524	-14.825579	80.275347	-83.993696	
